<svg xmlns="http://www.w3.org/2000/svg" viewBox="0 0 1200 700" preserveAspectRatio="xMidYMid slice">
  <defs>
    <linearGradient id="g" x1="0" x2="1" y1="0" y2="1">
      <stop stop-color="#071426" offset="0"/>
      <stop stop-color="#0e315c" offset="0.55"/>
      <stop stop-color="#111827" offset="1"/>
    </linearGradient>
    <radialGradient id="r" cx="70%" cy="38%" r="45%">
      <stop stop-color="#60a5fa" stop-opacity=".6" offset="0"/>
      <stop stop-color="#0f172a" stop-opacity="0" offset="1"/>
    </radialGradient>
  </defs>
  <rect width="1200" height="700" fill="url(#g)"/>
  <rect width="1200" height="700" fill="url(#r)"/>
  <g opacity=".75" stroke="#cbd5e1" stroke-width="2" fill="none">
    <circle cx="760" cy="360" r="190"/>
    <circle cx="760" cy="360" r="135"/>
    <circle cx="760" cy="360" r="78"/>
    <path d="M760 80v560M480 360h560"/>
    <path d="M630 225l260 270M900 220L620 500"/>
  </g>
  <g fill="#e2e8f0" opacity=".9">
    <rect x="720" y="30" width="88" height="315" rx="18"/>
    <path d="M710 342h110l-55 210z" fill="#94a3b8"/>
    <circle cx="765" cy="360" r="22" fill="#f8fafc"/>
  </g>
  <g opacity=".65">
    <circle cx="570" cy="395" r="4" fill="#bfdbfe"/><circle cx="610" cy="330" r="3" fill="#bfdbfe"/><circle cx="930" cy="310" r="5" fill="#bfdbfe"/><circle cx="980" cy="400" r="3" fill="#bfdbfe"/><circle cx="640" cy="460" r="4" fill="#bfdbfe"/>
  </g>
</svg>
